<?xml version="1.0" encoding="iso-8859-1"?>
<!-- Generator: Adobe Illustrator 19.2.1, SVG Export Plug-In . SVG Version: 6.00 Build 0)  -->
<svg version="1.1" id="Ebene_1" xmlns="http://www.w3.org/2000/svg" xmlns:xlink="http://www.w3.org/1999/xlink" x="0px" y="0px"
	 viewBox="0 0 1920 1080" style="enable-background:new 0 0 1920 1080;" xml:space="preserve">
<path style="fill:#7D2D86;" d="M251.378,779.851l-28.12,34.992c19.507,14.668,40.917,27.38,64.089,37.746l16.823-41.631
	C285.153,802.326,267.52,791.86,251.378,779.851"/>
<path style="fill:#7D2D86;" d="M191.25,719.243l-37.012,25.372c14.479,19.968,31.238,38.431,50.127,54.944l28.141-35.02
	C217.045,750.849,203.252,735.64,191.25,719.243"/>
<path style="fill:#7D2D86;" d="M248.146,680.239l-39.712,27.223c10.848,14.744,23.264,28.439,37.138,40.818l30.217-37.601
	C265.559,701.357,256.323,691.157,248.146,680.239"/>
<path style="fill:#7D2D86;" d="M294.64,726.016l-30.206,37.589c14.576,10.778,30.456,20.199,47.548,28.026l18.08-44.739
	C317.411,740.948,305.585,733.946,294.64,726.016"/>
<path style="fill:#7D2D86;" d="M210.201,831.089l-29.055,36.156c24.537,18.626,51.617,34.69,81.034,47.628l17.358-42.955
	C254.431,860.754,231.268,846.991,210.201,831.089"/>
<path style="fill:#E20142;" d="M135.514,560.297l-44.839,0.676c0.943,24.852,4.741,49.38,11.083,73.18l42.769-13.609
	C139.458,600.921,136.361,580.737,135.514,560.297"/>
<path style="fill:#E20142;" d="M217.267,622.902l-45.861,14.591c6.108,17.326,14.006,33.998,23.532,49.758l39.726-27.232
	C227.711,648.205,221.897,635.773,217.267,622.902"/>
<path style="fill:#E20142;" d="M204.534,559.253l-48.182,0.727c0.797,18.395,3.546,36.562,8.037,54.245l45.876-14.596
	C207.108,586.439,205.194,572.919,204.534,559.253"/>
<path style="fill:#E20142;" d="M88.938,663.731l-44.252,14.078c10.115,29.666,23.702,58.108,40.472,84.699l38.351-26.29
	C109.29,713.398,97.663,689.085,88.938,663.731"/>
<path style="fill:#F6A700;" d="M158.883,434.629c5.481-12.689,11.823-24.745,18.838-36.21l-37.765-24.245
	c-8.308,13.492-15.789,27.702-22.255,42.663c-3.381,7.828-6.33,15.733-9.067,23.665l43.189,12.318
	C153.983,446.727,156.28,440.649,158.883,434.629"/>
<path style="fill:#F6A700;" d="M144.599,476.028L101.47,463.73c-6.414,24.179-9.897,48.628-10.758,72.941l44.893-0.679
	C136.475,515.999,139.391,495.91,144.599,476.028"/>
<path style="fill:#F6A700;" d="M222.262,462.013c3.974-9.193,8.548-17.936,13.577-26.285l-40.584-26.053
	c-6.415,10.526-12.225,21.581-17.251,33.216c-2.241,5.181-4.24,10.407-6.127,15.645l46.452,13.25
	C219.563,468.517,220.862,465.256,222.262,462.013"/>
<path style="fill:#F6A700;" d="M81.444,458.018l-44.519-12.696c-8.248,30.624-12.689,61.603-13.538,92.367l46.482-0.704
	C70.72,510.668,74.469,484.193,81.444,458.018"/>
<path style="fill:#B1C90A;" d="M301.421,288.118l-18.055-41.061c-21.931,10.152-42.767,22.696-62.122,37.434l29.196,34.161
	C266.391,306.718,283.478,296.489,301.421,288.118"/>
<path style="fill:#B1C90A;" d="M231.597,334.01l-29.146-34.108c-18.077,15.98-34.522,34.064-48.973,54.074l37.819,24.282
	C203.282,361.961,216.804,347.167,231.597,334.01"/>
<path style="fill:#B1C90A;" d="M329.166,351.219l-19.362-44.036c-16.094,7.541-31.442,16.693-45.809,27.331l31.323,36.655
	C306.006,363.488,317.345,356.84,329.166,351.219"/>
<path style="fill:#B1C90A;" d="M274.985,227.994l-18.7-42.528c-27.907,12.811-54.377,28.828-78.804,47.816l30.208,35.347
	C228.62,252.585,251.201,238.968,274.985,227.994"/>
<path style="fill:#B1C90A;" d="M188.915,284.066l-30.153-35.284c-22.965,20.211-43.79,43.234-61.897,68.85l39.052,25.069
	C151.506,320.965,169.319,301.355,188.915,284.066"/>
<path style="fill:#0069B0;" d="M381.079,264.106l-5.431-44.543c-23.93,3.5-47.343,9.62-69.855,18.12l18.073,41.111
	C342.348,271.987,361.511,267.036,381.079,264.106"/>
<path style="fill:#0069B0;" d="M464.015,263.816l7.666-44.23c-24.032-3.53-48.114-4.328-71.867-2.613l5.435,44.58
	C424.69,260.304,444.367,261.012,464.015,263.816"/>
<path style="fill:#0069B0;" d="M389.428,332.573l-5.826-47.786c-17.545,2.664-34.737,7.069-51.343,13.094l19.387,44.087
	C363.905,337.723,376.554,334.599,389.428,332.573"/>
<path style="fill:#0069B0;" d="M475.239,199.05l7.915-45.682c-30.606-4.659-61.29-5.657-91.492-3.24l5.629,46.148
	C423.046,194.337,449.172,195.182,475.239,199.05"/>
<path style="fill:#00B9E8;" d="M510.073,347.874c0.803,0.347,1.573,0.74,2.371,1.097l21.599-43.11
	c-1.622-0.74-3.205-1.534-4.849-2.245c-14.736-6.368-29.743-11.214-44.854-14.772l-8.242,47.563
	C487.535,339.268,498.897,343.044,510.073,347.874"/>
<path style="fill:#00B9E8;" d="M563.512,224.195c3.15,1.361,6.204,2.858,9.298,4.301l20.766-41.45
	c-3.869-1.819-7.765-3.602-11.719-5.312c-24.563-10.612-49.604-18.544-74.802-23.973l-7.919,45.707
	C520.825,208.242,542.379,215.066,563.512,224.195"/>
<path style="fill:#00B9E8;" d="M585.173,258.065l-20.126,40.165c17.404,9.831,33.396,21.336,47.982,34.139l29.705-33.618
	C625.294,283.422,606.102,269.701,585.173,258.065"/>
<path style="fill:#00B9E8;" d="M555.695,316.894l-21.642,43.193c11.998,7.023,23.108,15.079,33.296,23.981l31.883-36.083
	C585.976,336.357,571.46,325.882,555.695,316.894"/>
<path style="fill:#00B9E8;" d="M615.245,198.046l-20.744,41.399c22.566,12.469,43.244,27.215,62.01,43.714l30.684-34.722
	C665.472,229.359,641.471,212.362,615.245,198.046"/>
<g>
	<path style="fill:#FFFFFF;stroke:#333434;stroke-width:5;stroke-miterlimit:10;" d="M463.381,413.263l-6.4,52.4
		c-9.869-1.062-17.068-1.463-21.6-1.2c-9.068,0.538-14.537,8.138-16.4,22.8c0,2.4-0.27,5.069-0.801,8l34.801,4.4l-6,47.619
		l-34.406-3.944l-20,161.925l-82.394-10.399l19.601-162.025l-27.606-3.144l6.006-48.031l28,3.6c5.331-44.531,20.4-69.73,45.2-75.6
		c12-2.932,27.6-3.2,46.799-0.8L463.381,413.263z"/>
	<path style="fill:#FFFFFF;stroke:#333434;stroke-width:5;stroke-miterlimit:10;" d="M545.777,457.282l-82.387,13.262l-9.213-58.868
		l82-13.213L545.777,457.282z M582.978,693.263l-82,13.2l-33.2-209.2l82-12.8L582.978,693.263z"/>
	<path style="fill:#FFFFFF;stroke:#333434;stroke-width:5;stroke-miterlimit:10;" d="M743.774,560.863c-10.938,0-16.668,0-17.199,0
		c-30.4,3.2-45.601,20.537-45.601,52c0,4.537,0.263,9.337,0.8,14.399l7.601,73.2l-82.8,8.4l-22-210.4l75.219-7.6l4.831,42.394
		l0.399,0.006c7.994-33.6,27.582-52,58.763-55.199c1.331-0.263,3.062-0.4,5.194-0.4c2.131,0,4.131,0.138,6,0.4L743.774,560.863z"/>
	<path style="fill:#FFFFFF;stroke:#333434;stroke-width:5;stroke-miterlimit:10;" d="M988.586,602.194l-158.394,16.844
		c1.331,11.682,6.331,21.037,14.993,28.075c8.663,7.037,18.862,9.888,30.601,8.55c14.931-1.6,24.531-8.932,28.8-22l79.188-8.4
		c-4.538,27.738-19.869,48.938-46,63.601c-22.4,12.8-48.669,19.2-78.8,19.2c-40,0-70.538-13.332-91.601-40
		c-14.938-19.2-22.399-43.2-22.399-72c0-39.731,16.131-70,48.399-90.801c21.601-14.399,46.938-21.462,76.007-21.199
		c42.938,0,75.337,17.087,97.206,51.256C978.317,554.007,985.648,576.301,988.586,602.194z M900.974,568.063
		c-0.801-9.601-5.27-17.663-13.4-24.2c-8.138-6.531-17.138-9.4-27-8.601c-16.537,1.869-27.338,8.801-32.4,20.801
		c-2.399,5.868-3.199,12.537-2.399,20L900.974,568.063z"/>
	<path style="fill:#FFFFFF;stroke:#333434;stroke-width:5;stroke-miterlimit:10;" d="M1328.567,472.063l-44.544,217.243l-81.068,8.4
		l-44.863-120.019h-0.543l-16.194,126.375l-80.794,9.199l-90.793-203.581l80.8-8.419l45.6,126.4h0.8l18.395-133.6l70.006-7.2
		l45.6,126.8l0.801-0.4l18.399-133.199L1328.567,472.063z"/>
	<path style="fill:#FFFFFF;stroke:#333434;stroke-width:5;stroke-miterlimit:10;" d="M1550.564,547.663
		c0.8,10.138,0.263,22.669-1.6,37.6l-12,98c-0.801,6.669-0.801,11.869,0,15.601c0.8,3.731,3.331,8,7.6,12.8l-0.4,4l-85.199-10.4
		l-1.2-23.199c-22.4,16.8-49.601,23.199-81.601,19.199c-18.938-2.399-34.537-8.531-46.8-18.399
		c-13.6-11.463-20.399-26.132-20.399-44c0-3.2,0.262-6.531,0.8-10c2.399-20.531,11.331-35.463,26.8-44.8
		c11.731-7.2,28.662-11.601,50.8-13.2c18.4-0.531,36.663-1.2,54.8-2c16.801-0.8,25.731-5.331,26.801-13.601
		c0.8-7.462-2.669-13.062-10.4-16.8c-5.869-2.662-13.068-4-21.6-4c-13.601,0-21.738,5.737-24.4,17.2l-79.2-10
		c3.731-30.932,22.263-49.6,55.601-56c17.6-3.2,39.73-3.2,66.399,0c44.8,5.338,73.331,16.8,85.601,34.4
		C1546.564,528.332,1549.765,537.532,1550.564,547.663z M1462.164,611.263c-5.868,1.869-15.6,3.601-29.199,5.2
		c-12.538,1.069-21.669,2.8-27.4,5.2c-5.737,2.4-9.138,7.737-10.2,16c-1.6,11.737,6.4,18.669,24,20.8
		C1443.627,661.4,1457.896,645.663,1462.164,611.263z"/>
	<path style="fill:#FFFFFF;stroke:#333434;stroke-width:5;stroke-miterlimit:10;" d="M1660.162,416.863l-35.6,288.8l-82.8-10
		l35.6-288.8L1660.162,416.863z"/>
	<path style="fill:#FFFFFF;stroke:#333434;stroke-width:5;stroke-miterlimit:10;" d="M1777.362,416.863l-35.6,288.8l-82.8-10
		l35.6-288.8L1777.362,416.863z"/>
</g>
<g>
	<path style="fill:#FFFFFF;stroke:#333434;stroke-width:3;stroke-miterlimit:10;" d="M1600.835,787.15l-5,41.2l-42.2-5.2l5.2-41.2
		L1600.835,787.15z"/>
	<path style="fill:#FFFFFF;stroke:#333434;stroke-width:3;stroke-miterlimit:10;" d="M1723.436,777.15c0,18-6,31.469-18,40.399
		c-8.936,6.535-18.334,9.801-28.201,9.801c-8.398,0-16.068-3.2-22.999-9.601l7.399,46l-41.199,6.601l-22.197-140.2l36.95-5.794
		l2.469,15.591l0.399-0.2c1.732-6.131,5.397-11.331,10.998-15.597c5.596-4.266,11.797-6.932,18.596-8
		c14.928-2.4,27.326,1.134,37.191,10.6C1717.234,738.75,1723.436,755.55,1723.436,777.15z M1681.436,770.351
		c-2.4-14.531-8.6-21.801-18.6-21.801c-6.67,0-11.4,2.935-14.201,8.801c-1.6,3.334-2.399,7.134-2.399,11.399
		c0,2,0.132,4.069,0.399,6.2c0.932,5.869,2.732,10.734,5.4,14.6c3.332,5.069,7.6,7.601,12.801,7.601c6.664,0,11.531-2.932,14.6-8.8
		C1681.836,783.55,1682.5,777.55,1681.436,770.351z"/>
	<path style="fill:#FFFFFF;stroke:#333434;stroke-width:3;stroke-miterlimit:10;" d="M1893.832,711.15l-22.271,108.622
		l-40.533,4.199l-22.432-60.009h-0.271l-8.098,63.188l-40.396,4.6l-45.396-101.79l40.398-4.21l22.801,63.2h0.4l9.197-66.8
		l35.002-3.601l22.801,63.4l0.4-0.2l9.199-66.6L1893.832,711.15z"/>
</g>
<g>
	<polyline style="fill:none;" points="981.941,830.45 981.941,825.95 2139.883,825.95 	"/>
</g>
<g>
	<rect x="2268.876" y="912.946" style="fill:none;" width="4.5" height="1.5"/>
</g>
<g>
</g>
<g>
</g>
<g>
</g>
<g>
</g>
<g>
</g>
<g>
</g>
</svg>
