<?xml version="1.0" encoding="UTF-8" standalone="no"?>
<!DOCTYPE svg PUBLIC "-//W3C//DTD SVG 1.1//EN" "http://www.w3.org/Graphics/SVG/1.1/DTD/svg11.dtd">
<svg width="100%" height="100%" viewBox="0 0 1584 347" version="1.1" xmlns="http://www.w3.org/2000/svg" xmlns:xlink="http://www.w3.org/1999/xlink" xml:space="preserve" xmlns:serif="http://www.serif.com/" style="fill-rule:evenodd;clip-rule:evenodd;stroke-linejoin:round;stroke-miterlimit:2;">
    <g transform="matrix(1,0,0,1,-2674.84,-462.212)">
        <g transform="matrix(0.644037,0,0,0.112375,957.41,462.212)">
            <rect id="Text-rechts-DARK" serif:id="Text rechts DARK" x="2666.67" y="0" width="2458.33" height="3087.5" style="fill:none;"/>
            <g id="Text-rechts-DARK1" serif:id="Text rechts DARK">
                <g>
                    <g transform="matrix(6.4696,0,0,37.0781,1660.91,-22152.5)">
                        <g transform="matrix(0.989032,0,0,1,2.69024,0)">
                            <text x="245.272px" y="645.371px" style="font-family:'Sansation-Bold', 'Sansation';font-weight:700;font-size:36.76px;fill:white;">h<tspan x="268.736px 291.932px 325.986px 347.925px 368.159px 390.098px 404.139px 425.36px 447.299px " y="645.371px 645.371px 645.371px 645.371px 645.371px 645.371px 645.371px 645.371px 645.371px ">omeserver</tspan></text>
                        </g>
                        <g transform="matrix(0.989032,0,0,1,5.03418,0)">
                            <text x="458.971px" y="645.371px" style="font-family:'Sansation-Regular', 'Sansation';font-size:36.76px;fill:rgb(73,200,240);">.<tspan x="467.717px 501.951px " y="645.371px 645.371px ">me</tspan></text>
                        </g>
                    </g>
                    <g transform="matrix(-6.4696,0,0,37.0781,4384.09,-4810.21)">
                        <rect x="209.486" y="135.666" width="1.946" height="1.945" style="fill:rgb(146,200,68);"/>
                    </g>
                    <g transform="matrix(6.4696,0,0,37.0781,1660.91,-4240.95)">
                        <rect x="209.486" y="127.989" width="1.946" height="1.946" style="fill:rgb(146,200,68);"/>
                    </g>
                    <g transform="matrix(6.4696,0,0,37.0781,1660.91,-4385.33)">
                        <rect x="211.432" y="129.936" width="1.945" height="1.946" style="fill:rgb(146,200,68);"/>
                    </g>
                    <g transform="matrix(-6.4696,0,0,37.0781,4458.58,-4661.38)">
                        <rect x="215.244" y="133.659" width="1.945" height="1.945" style="fill:rgb(146,200,68);"/>
                    </g>
                    <g transform="matrix(6.4696,0,0,37.0781,3041.38,721.398)">
                        <path d="M0,-0.115L-1.945,-0.115L-1.945,1.831L0,1.831L0,0L1.946,0L1.946,-1.946L0,-1.946L0,-0.115Z" style="fill:rgb(146,200,68);fill-rule:nonzero;"/>
                    </g>
                    <g transform="matrix(-6.4696,0,0,37.0781,4334.06,-4810.21)">
                        <rect x="205.62" y="135.666" width="1.946" height="1.945" style="fill:rgb(146,200,68);"/>
                    </g>
                    <g transform="matrix(-6.4696,0,0,37.0781,4483.76,-4517.04)">
                        <rect x="217.189" y="131.712" width="1.946" height="1.946" style="fill:rgb(146,200,68);"/>
                    </g>
                    <g transform="matrix(6.4696,0,0,37.0781,1660.91,-3815.96)">
                        <rect x="221.081" y="122.258" width="1.945" height="1.946" style="fill:rgb(146,200,68);"/>
                    </g>
                    <g transform="matrix(6.4696,0,0,37.0781,1660.91,-4240.95)">
                        <rect x="217.189" y="127.989" width="1.946" height="1.946" style="fill:rgb(146,200,68);"/>
                    </g>
                    <g transform="matrix(-6.4696,0,0,37.0781,4508.94,-4096.64)">
                        <rect x="219.135" y="126.043" width="1.946" height="1.946" style="fill:rgb(146,200,68);"/>
                    </g>
                    <g transform="matrix(-6.4696,0,0,37.0781,4508.94,-4810.21)">
                        <rect x="219.135" y="135.666" width="1.946" height="1.945" style="fill:rgb(146,200,68);"/>
                    </g>
                    <g transform="matrix(6.4696,0,0,37.0781,1660.91,-4310.92)">
                        <path d="M205.727,133.806L203.781,133.806L203.781,131.86L205.727,131.86L205.727,133.806ZM199.89,126.183L199.89,124.238L201.835,124.238L201.835,126.183L203.781,126.183L203.781,128.128L201.835,128.128L201.835,126.183L199.89,126.183ZM198.023,129.906L196.078,129.906L196.078,131.852L194.132,131.852L194.132,129.906L196.078,129.906L196.078,127.959L198.023,127.959L198.023,129.906ZM171.559,131.272C171.559,131.862 171.082,132.338 170.493,132.338L167.76,132.338C167.171,132.338 166.694,131.862 166.694,131.272L166.694,128.54C166.694,127.952 167.171,127.473 167.76,127.473L170.493,127.473C171.082,127.473 171.559,127.952 171.559,128.54L171.559,131.272ZM207.566,131.852L205.727,131.852L205.727,129.906L207.566,129.906L207.566,127.939L209.513,127.939L209.513,125.993L207.566,125.993L207.566,126.023L205.621,126.023L205.621,124.174L203.674,124.174L203.674,122.229L162.568,122.229C161.981,122.229 161.504,122.71 161.504,123.306L161.504,136.506C161.504,137.101 161.981,137.582 162.568,137.582L199.89,137.582L199.89,135.637L201.835,135.637L201.835,137.582L205.621,137.582L205.621,135.637L207.566,135.637L207.566,135.607L209.513,135.607L209.513,133.661L207.566,133.661L207.566,131.852Z" style="fill:rgb(146,200,68);fill-rule:nonzero;"/>
                    </g>
                    <g transform="matrix(-6.4696,0,0,37.0781,4433.41,-2289.38)">
                        <rect x="213.298" y="101.672" width="1.946" height="1.946" style="fill:rgb(73,200,240);"/>
                    </g>
                    <g transform="matrix(-6.4696,0,0,37.0781,4334.06,-2289.38)">
                        <rect x="205.62" y="101.672" width="1.946" height="1.946" style="fill:rgb(73,200,240);"/>
                    </g>
                    <g transform="matrix(6.4696,0,0,37.0781,3028.79,1621.06)">
                        <path d="M0,0.161L1.945,0.161L1.945,-1.785L0,-1.785L0,0.002L-1.946,0.002L-1.946,1.946L0,1.946L0,0.161Z" style="fill:rgb(73,200,240);fill-rule:nonzero;"/>
                    </g>
                    <g transform="matrix(-6.4696,0,0,37.0781,4384.09,-1720.08)">
                        <rect x="209.486" y="93.995" width="1.946" height="1.946" style="fill:rgb(73,200,240);"/>
                    </g>
                    <g transform="matrix(6.4696,0,0,37.0781,1660.91,-1720.08)">
                        <rect x="213.297" y="93.995" width="1.946" height="1.946" style="fill:rgb(73,200,240);"/>
                    </g>
                    <g transform="matrix(6.4696,0,0,37.0781,3053.46,1693.2)">
                        <path d="M0,-3.731L0,-1.785L1.945,-1.785L1.945,0L3.891,0L3.891,-1.944L1.945,-1.944L1.945,-3.731L0,-3.731Z" style="fill:rgb(73,200,240);fill-rule:nonzero;"/>
                    </g>
                    <g transform="matrix(6.4696,0,0,37.0781,3041.38,1981.87)">
                        <path d="M0,-0.116L-1.945,-0.116L-1.945,1.83L0,1.83L0,-0L1.946,-0L1.946,-1.946L0,-1.946L0,-0.116Z" style="fill:rgb(73,200,240);fill-rule:nonzero;"/>
                    </g>
                    <g transform="matrix(6.4696,0,0,37.0781,1660.91,-2145.07)">
                        <rect x="221.081" y="99.726" width="1.945" height="1.946" style="fill:rgb(73,200,240);"/>
                    </g>
                    <g transform="matrix(6.4696,0,0,37.0781,3078.63,1905.4)">
                        <path d="M0,-3.785L-1.946,-3.785L-1.946,-1.839L0,-1.839L0,0L1.946,0L1.946,-1.945L0,-1.945L0,-3.785Z" style="fill:rgb(73,200,240);fill-rule:nonzero;"/>
                    </g>
                    <g transform="matrix(6.4696,0,0,37.0781,1660.91,-1295.09)">
                        <rect x="217.189" y="88.264" width="1.946" height="1.946" style="fill:rgb(73,200,240);"/>
                    </g>
                    <g transform="matrix(6.4696,0,0,37.0781,1660.91,-1790.01)">
                        <path d="M205.727,99.811L203.781,99.811L203.781,97.866L205.727,97.866L205.727,99.811ZM199.89,92.188L199.89,90.242L201.835,90.242L201.835,92.188L203.781,92.188L203.781,94.134L201.835,94.134L201.835,92.188L199.89,92.188ZM171.559,97.277C171.559,97.866 171.082,98.343 170.493,98.343L167.76,98.343C167.171,98.343 166.694,97.866 166.694,97.277L166.694,94.545C166.694,93.956 167.171,93.478 167.76,93.478L170.493,93.478C171.082,93.478 171.559,93.956 171.559,94.545L171.559,97.277ZM207.566,97.857L205.727,97.857L205.727,95.911L207.566,95.911L207.566,92.028L205.621,92.028L205.621,90.179L203.674,90.179L203.674,88.234L162.568,88.234C161.981,88.234 161.504,88.716 161.504,89.31L161.504,102.511C161.504,103.106 161.981,103.588 162.568,103.588L199.89,103.588L199.89,101.642L201.835,101.642L201.835,103.588L205.621,103.588L205.621,101.642L207.566,101.642L207.566,101.612L209.513,101.612L209.513,99.666L207.566,99.666L207.566,97.857Z" style="fill:rgb(73,200,240);fill-rule:nonzero;"/>
                    </g>
                    <g transform="matrix(6.4696,0,0,37.0781,1660.91,-2980.52)">
                        <rect x="209.486" y="110.993" width="1.946" height="1.944" style="fill:rgb(255,196,19);"/>
                    </g>
                    <g transform="matrix(6.4696,0,0,37.0781,1660.91,-3124.83)">
                        <rect x="213.297" y="112.938" width="1.946" height="1.946" style="fill:rgb(255,196,19);"/>
                    </g>
                    <g transform="matrix(-6.4696,0,0,37.0781,4458.58,-3400.87)">
                        <rect x="215.244" y="116.661" width="1.945" height="1.945" style="fill:rgb(255,196,19);"/>
                    </g>
                    <g transform="matrix(6.4696,0,0,37.0781,3041.38,1351.66)">
                        <path d="M0,-0.117L-1.945,-0.117L-1.945,1.829L0,1.829L0,-0.001L1.946,-0.001L1.946,-1.946L0,-1.946L0,-0.117Z" style="fill:rgb(255,196,19);fill-rule:nonzero;"/>
                    </g>
                    <g transform="matrix(-6.4696,0,0,37.0781,4334.06,-3549.82)">
                        <rect x="205.62" y="118.669" width="1.946" height="1.946" style="fill:rgb(255,196,19);"/>
                    </g>
                    <g transform="matrix(-6.4696,0,0,37.0781,4508.94,-3549.82)">
                        <rect x="219.135" y="118.669" width="1.946" height="1.946" style="fill:rgb(255,196,19);"/>
                    </g>
                    <g transform="matrix(6.4696,0,0,37.0781,1660.91,-2555.6)">
                        <rect x="221.081" y="105.262" width="1.945" height="1.946" style="fill:rgb(255,196,19);"/>
                    </g>
                    <g transform="matrix(6.4696,0,0,37.0781,3066.04,1206.99)">
                        <path d="M0,-0.106L-1.945,-0.106L-1.945,1.839L0,1.839L0,-0.001L1.946,-0.001L1.946,-1.945L0,-1.945L0,-0.106Z" style="fill:rgb(255,196,19);fill-rule:nonzero;"/>
                    </g>
                    <g transform="matrix(6.4696,0,0,37.0781,1660.91,-3124.83)">
                        <rect x="221.081" y="112.938" width="1.945" height="1.946" style="fill:rgb(255,196,19);"/>
                    </g>
                    <g transform="matrix(6.4696,0,0,37.0781,3028.79,850.2)">
                        <path d="M0,3.794L1.945,3.794L1.945,1.849L0,1.849L0,0L-1.946,0L-1.946,1.946L0,1.946L0,3.794Z" style="fill:rgb(255,196,19);fill-rule:nonzero;"/>
                    </g>
                    <g transform="matrix(6.4696,0,0,37.0781,1660.91,-3050.45)">
                        <path d="M205.727,116.809L203.781,116.809L203.781,114.863L205.727,114.863L205.727,116.809ZM203.737,109.155L201.791,109.155L201.791,107.21L203.737,107.21L203.737,109.155ZM199.827,118.608L197.881,118.608L197.881,116.663L199.827,116.663L199.827,118.608ZM171.559,114.274C171.559,114.863 171.082,115.341 170.493,115.341L167.76,115.341C167.171,115.341 166.694,114.863 166.694,114.274L166.694,111.543C166.694,110.953 167.171,110.476 167.76,110.476L170.493,110.476C171.082,110.476 171.559,110.953 171.559,111.543L171.559,114.274ZM207.566,114.853L205.727,114.853L205.727,112.909L207.566,112.909L207.566,110.941L209.513,110.941L209.513,108.995L207.566,108.995L207.566,109.025L205.621,109.025L205.621,107.177L203.674,107.177L203.674,105.231L162.568,105.231C161.981,105.231 161.504,105.713 161.504,106.307L161.504,119.508C161.504,120.103 161.981,120.585 162.568,120.585L199.89,120.585L199.89,118.638L201.835,118.638L201.835,120.585L205.621,120.585L205.621,118.638L207.566,118.638L207.566,118.608L209.513,118.608L209.513,116.663L207.566,116.663L207.566,114.853Z" style="fill:rgb(255,196,19);fill-rule:nonzero;"/>
                    </g>
                    <g transform="matrix(6.4696,0,0,37.0781,2912.36,2462)">
                        <path d="M0,7.891C0,8.48 -0.477,8.956 -1.066,8.956L-9.81,8.956C-10.398,8.956 -10.875,8.48 -10.875,7.891L-10.875,0C-10.875,-0.588 -10.398,-1.065 -9.81,-1.065L-1.066,-1.065C-0.477,-1.065 0,-0.588 0,0L0,7.891Z" style="fill:rgb(238,68,152);fill-rule:nonzero;"/>
                    </g>
                    <g transform="matrix(6.4696,0,0,37.0781,2887.75,2145.76)">
                        <path d="M0,5.758C0,6.111 -0.381,6.397 -0.853,6.397L-2.416,6.397C-2.887,6.397 -3.27,6.111 -3.27,5.758L-3.27,-0C-3.27,-0.353 -2.887,-0.639 -2.416,-0.639L-0.853,-0.639C-0.381,-0.639 0,-0.353 0,-0L0,5.758Z" style="fill:rgb(238,68,152);fill-rule:nonzero;"/>
                    </g>
                    <g transform="matrix(6.4696,0,0,37.0781,2826.5,2682.11)">
                        <path d="M0,-3.27C0.354,-3.27 0.64,-2.887 0.64,-2.417L0.64,-0.854C0.64,-0.383 0.354,0 0,0L-18.125,0C-18.479,0 -18.766,-0.383 -18.766,-0.854L-18.766,-2.417C-18.766,-2.887 -18.479,-3.27 -18.125,-3.27L0,-3.27Z" style="fill:rgb(238,68,152);fill-rule:nonzero;"/>
                    </g>
                    <g transform="matrix(6.4696,0,0,37.0781,3045.35,2682.11)">
                        <path d="M0,-3.27C0.353,-3.27 0.64,-2.887 0.64,-2.417L0.64,-0.854C0.64,-0.383 0.353,0 0,0L-18.126,0C-18.48,0 -18.766,-0.383 -18.766,-0.854L-18.766,-2.417C-18.766,-2.887 -18.48,-3.27 -18.126,-3.27L0,-3.27Z" style="fill:rgb(238,68,152);fill-rule:nonzero;"/>
                    </g>
                </g>
            </g>
        </g>
    </g>
</svg>
