<svg id="Ebene_1" data-name="Ebene 1" xmlns="http://www.w3.org/2000/svg" viewBox="0 0 1823.61 753.93"><defs><style>.cls-1{fill:#e6ccb6;}.cls-2{fill:#fff;}</style></defs><title>logo_white</title><path id="_Pfad_" data-name="&lt;Pfad&gt;" class="cls-1" d="M810.81,788.65c-0.56.38-1.11,0.78-1.68,1.24C809.68,789.46,810.23,789,810.81,788.65Z" transform="translate(-45.25 -35.96)"/><path id="_Pfad_2" data-name="&lt;Pfad&gt;" class="cls-1" d="M811.66,788.11a23.06,23.06,0,0,1,12.12-3.36h0A20.79,20.79,0,0,0,811.66,788.11Z" transform="translate(-45.25 -35.96)"/><path id="_Pfad_3" data-name="&lt;Pfad&gt;" class="cls-1" d="M1045,784.75h0a23.07,23.07,0,0,1,12.12,3.36A20.8,20.8,0,0,0,1045,784.75Z" transform="translate(-45.25 -35.96)"/><polygon id="_Pfad_4" data-name="&lt;Pfad&gt;" class="cls-2" points="430.96 94.53 267.23 0 102.08 95.33 267.21 189.05 430.96 94.53"/><path id="_Pfad_5" data-name="&lt;Pfad&gt;" class="cls-2" d="M483.53,134.72v68.6l-1.29.75-168.54,97.1v45.58l169.83-95.49v72.53l-169.83,98V467.6l169.83-95.94V445L312.48,543.76,141.41,445V134.72L68.75,176.66a47,47,0,0,0-23.5,40.7V471.65a47,47,0,0,0,23.5,40.7L312.48,653,556.19,512.35a47,47,0,0,0,23.5-40.7V217.36a47,47,0,0,0-23.5-40.7Z" transform="translate(-45.25 -35.96)"/><path id="_Pfad_6" data-name="&lt;Pfad&gt;" class="cls-2" d="M55,499.67a46.48,46.48,0,0,0,13.74,12.68L312.48,653V543.76L141.47,445,68.75,487A46.47,46.47,0,0,0,55,499.67Z" transform="translate(-45.25 -35.96)"/><path id="_Pfad_7" data-name="&lt;Pfad&gt;" class="cls-2" d="M556.19,487l-72.71-42-94.65,54.65-76.36,44.09V653l171-98.71,72.71-42a46.47,46.47,0,0,0,13.74-12.68A46.48,46.48,0,0,0,556.19,487Z" transform="translate(-45.25 -35.96)"/><polygon id="_Pfad_8" data-name="&lt;Pfad&gt;" class="cls-2" points="267.23 0 267.23 189.05 430.96 94.53 267.23 0"/><g id="_Gruppe_" data-name="&lt;Gruppe&gt;"><path class="cls-2" d="M751.24,374.3v30.86H659.37V276.26h90.23v30.86H694.78v18.16h46.84V354H694.78V374.3h56.46Z" transform="translate(-45.25 -35.96)"/><path class="cls-2" d="M804.07,405.17V276.26h35.4v128.9h-35.4Z" transform="translate(-45.25 -35.96)"/><path class="cls-2" d="M890.85,339.63a64.29,64.29,0,0,1,17.43-43.75A66.17,66.17,0,0,1,929,281.17q12.16-5.62,27.78-5.63,18.7,0,32.41,7.72a50.29,50.29,0,0,1,20.42,20.42l-27.05,19.24a22.83,22.83,0,0,0-4.81-7.81,24.5,24.5,0,0,0-6.63-4.9,28.5,28.5,0,0,0-7.53-2.54,41.35,41.35,0,0,0-7.53-.73,26.44,26.44,0,0,0-22.24,10.8,33.73,33.73,0,0,0-5.26,10.89,44,44,0,0,0-1.73,12.07,41.55,41.55,0,0,0,2,12.89,33.59,33.59,0,0,0,5.81,10.89A28.35,28.35,0,0,0,944,372a27,27,0,0,0,12.44,2.81,35.46,35.46,0,0,0,7.44-.82,27.69,27.69,0,0,0,7.35-2.72,24.86,24.86,0,0,0,6.35-4.9,21.74,21.74,0,0,0,4.45-7.35l28.87,17.25A36.76,36.76,0,0,1,1002,389a55.91,55.91,0,0,1-13.43,9.44,71.21,71.21,0,0,1-16.16,5.81,74.35,74.35,0,0,1-16.79,2,59.73,59.73,0,0,1-26.23-5.72,66.48,66.48,0,0,1-20.52-15.16A68.93,68.93,0,0,1,895.57,364,65.83,65.83,0,0,1,890.85,339.63Z" transform="translate(-45.25 -35.96)"/><path class="cls-2" d="M1173.71,276.26v128.9h-35.4V354.69h-43.21v50.47h-35.4V276.26h35.4v47.57h43.21V276.26h35.4Z" transform="translate(-45.25 -35.96)"/><path class="cls-2" d="M1329.66,405.17v-67.9L1308.05,385h-18.88l-21.6-47.75v67.9h-35.4V276.26h38.67l27.78,60.64,28-60.64h38.49v128.9h-35.4Z" transform="translate(-45.25 -35.96)"/><path class="cls-2" d="M1456.93,276.26h32.32l44.66,128.9H1498l-7.81-25.24h-34.31l-7.62,25.24h-36.13Zm27.6,80.06-11.44-39.94-12,39.94h23.42Z" transform="translate(-45.25 -35.96)"/><path class="cls-2" d="M1616.33,341.8v63.36h-35.4V276.26h27.6l51.74,65.54V276.26h35.4v128.9h-28.14Z" transform="translate(-45.25 -35.96)"/><path class="cls-2" d="M1789.53,341.8v63.36h-35.4V276.26h27.6l51.74,65.54V276.26h35.4v128.9h-28.14Z" transform="translate(-45.25 -35.96)"/></g></svg>